{
    "patcher": {
        "fileversion": 1,
        "appversion": {
            "major": 9,
            "minor": 1,
            "revision": 4,
            "architecture": "x64",
            "modernui": 1
        },
        "classnamespace": "box",
        "rect": [ 260.0, 95.0, 1098.0, 823.0 ],
        "boxes": [
            {
                "box": {
                    "id": "obj-19",
                    "maxclass": "newobj",
                    "numinlets": 1,
                    "numoutlets": 0,
                    "patching_rect": [ 681.0, 375.0, 57.0, 22.0 ],
                    "text": "s volume"
                }
            },
            {
                "box": {
                    "id": "obj-18",
                    "maxclass": "newobj",
                    "numinlets": 1,
                    "numoutlets": 1,
                    "outlettype": [ "" ],
                    "patching_rect": [ 681.0, 167.0, 83.0, 22.0 ],
                    "text": "loadmess 127"
                }
            },
            {
                "box": {
                    "id": "obj-17",
                    "maxclass": "comment",
                    "numinlets": 1,
                    "numoutlets": 0,
                    "patching_rect": [ 681.0, 193.0, 147.0, 20.0 ],
                    "text": "Volume Range",
                    "textjustification": 1
                }
            },
            {
                "box": {
                    "id": "obj-15",
                    "maxclass": "dial",
                    "mode": 2,
                    "numinlets": 1,
                    "numoutlets": 1,
                    "outlettype": [ "float" ],
                    "parameter_enable": 0,
                    "patching_rect": [ 681.0, 215.0, 147.0, 147.0 ]
                }
            },
            {
                "box": {
                    "id": "obj-39",
                    "lastchannelcount": 0,
                    "maxclass": "live.gain~",
                    "numinlets": 2,
                    "numoutlets": 5,
                    "orientation": 1,
                    "outlettype": [ "signal", "signal", "", "float", "list" ],
                    "parameter_enable": 1,
                    "patching_rect": [ 500.0, 303.0, 136.0, 47.0 ],
                    "saved_attribute_attributes": {
                        "valueof": {
                            "parameter_longname": "live.gain~",
                            "parameter_mmax": 6.0,
                            "parameter_mmin": -70.0,
                            "parameter_modmode": 3,
                            "parameter_shortname": "live.gain~",
                            "parameter_type": 0,
                            "parameter_unitstyle": 4
                        }
                    },
                    "varname": "live.gain~"
                }
            },
            {
                "box": {
                    "id": "obj-28",
                    "linecount": 2,
                    "maxclass": "comment",
                    "numinlets": 1,
                    "numoutlets": 0,
                    "patching_rect": [ 328.0, 171.0, 50.0, 33.0 ],
                    "text": "Pitch\nBase",
                    "textjustification": 1
                }
            },
            {
                "box": {
                    "id": "obj-27",
                    "linecount": 2,
                    "maxclass": "comment",
                    "numinlets": 1,
                    "numoutlets": 0,
                    "patching_rect": [ 268.0, 171.0, 48.0, 33.0 ],
                    "text": "Pitch\nRange",
                    "textjustification": 1
                }
            },
            {
                "box": {
                    "id": "obj-26",
                    "linecount": 2,
                    "maxclass": "comment",
                    "numinlets": 1,
                    "numoutlets": 0,
                    "patching_rect": [ 384.0, 171.0, 48.0, 33.0 ],
                    "text": "FM\nIndex",
                    "textjustification": 1
                }
            },
            {
                "box": {
                    "id": "obj-24",
                    "maxclass": "comment",
                    "numinlets": 1,
                    "numoutlets": 0,
                    "patching_rect": [ 208.0, 184.0, 44.0, 20.0 ],
                    "text": "Speed",
                    "textjustification": 1
                }
            },
            {
                "box": {
                    "id": "obj-11",
                    "maxclass": "slider",
                    "numinlets": 1,
                    "numoutlets": 1,
                    "outlettype": [ "" ],
                    "parameter_enable": 1,
                    "patching_rect": [ 328.0, 215.0, 43.0, 214.0 ],
                    "saved_attribute_attributes": {
                        "valueof": {
                            "parameter_longname": "slider[3]",
                            "parameter_modmode": 3,
                            "parameter_shortname": "slider[3]",
                            "parameter_type": 0
                        }
                    },
                    "varname": "slider[3]"
                }
            },
            {
                "box": {
                    "id": "obj-12",
                    "maxclass": "newobj",
                    "numinlets": 1,
                    "numoutlets": 0,
                    "patching_rect": [ 328.0, 480.0, 44.0, 22.0 ],
                    "text": "s base"
                }
            },
            {
                "box": {
                    "id": "obj-4",
                    "maxclass": "slider",
                    "numinlets": 1,
                    "numoutlets": 1,
                    "outlettype": [ "" ],
                    "parameter_enable": 1,
                    "patching_rect": [ 270.0, 215.0, 43.0, 214.0 ],
                    "saved_attribute_attributes": {
                        "valueof": {
                            "parameter_longname": "slider[2]",
                            "parameter_modmode": 3,
                            "parameter_shortname": "slider[2]",
                            "parameter_type": 0
                        }
                    },
                    "varname": "slider[2]"
                }
            },
            {
                "box": {
                    "id": "obj-10",
                    "maxclass": "newobj",
                    "numinlets": 1,
                    "numoutlets": 0,
                    "patching_rect": [ 270.0, 480.0, 49.0, 22.0 ],
                    "text": "s range"
                }
            },
            {
                "box": {
                    "id": "obj-25",
                    "maxclass": "slider",
                    "numinlets": 1,
                    "numoutlets": 1,
                    "outlettype": [ "" ],
                    "parameter_enable": 1,
                    "patching_rect": [ 386.0, 215.0, 43.0, 214.0 ],
                    "saved_attribute_attributes": {
                        "valueof": {
                            "parameter_longname": "slider[1]",
                            "parameter_modmode": 3,
                            "parameter_shortname": "slider[1]",
                            "parameter_type": 0
                        }
                    },
                    "varname": "slider[1]"
                }
            },
            {
                "box": {
                    "id": "obj-23",
                    "maxclass": "newobj",
                    "numinlets": 1,
                    "numoutlets": 0,
                    "patching_rect": [ 386.0, 480.0, 60.0, 22.0 ],
                    "text": "s fmindex"
                }
            },
            {
                "box": {
                    "id": "obj-7",
                    "maxclass": "newobj",
                    "numinlets": 1,
                    "numoutlets": 0,
                    "patching_rect": [ 208.0, 480.0, 51.0, 22.0 ],
                    "text": "s speed"
                }
            },
            {
                "box": {
                    "id": "obj-5",
                    "maxclass": "slider",
                    "numinlets": 1,
                    "numoutlets": 1,
                    "outlettype": [ "" ],
                    "parameter_enable": 1,
                    "patching_rect": [ 208.0, 215.0, 43.0, 214.0 ],
                    "saved_attribute_attributes": {
                        "valueof": {
                            "parameter_longname": "slider",
                            "parameter_modmode": 3,
                            "parameter_shortname": "slider",
                            "parameter_type": 0
                        }
                    },
                    "varname": "slider"
                }
            },
            {
                "box": {
                    "id": "obj-3",
                    "maxclass": "ezdac~",
                    "numinlets": 2,
                    "numoutlets": 0,
                    "patching_rect": [ 500.0, 368.0, 45.0, 45.0 ]
                }
            },
            {
                "box": {
                    "id": "obj-1",
                    "maxclass": "newobj",
                    "numinlets": 1,
                    "numoutlets": 2,
                    "outlettype": [ "signal", "signal" ],
                    "patching_rect": [ 500.0, 249.0, 152.0, 22.0 ],
                    "text": "poly~ colorpalette-voice 32"
                }
            }
        ],
        "lines": [
            {
                "patchline": {
                    "destination": [ "obj-39", 1 ],
                    "source": [ "obj-1", 1 ]
                }
            },
            {
                "patchline": {
                    "destination": [ "obj-39", 0 ],
                    "source": [ "obj-1", 0 ]
                }
            },
            {
                "patchline": {
                    "destination": [ "obj-12", 0 ],
                    "source": [ "obj-11", 0 ]
                }
            },
            {
                "patchline": {
                    "destination": [ "obj-19", 0 ],
                    "source": [ "obj-15", 0 ]
                }
            },
            {
                "patchline": {
                    "destination": [ "obj-15", 0 ],
                    "source": [ "obj-18", 0 ]
                }
            },
            {
                "patchline": {
                    "destination": [ "obj-23", 0 ],
                    "source": [ "obj-25", 0 ]
                }
            },
            {
                "patchline": {
                    "destination": [ "obj-3", 1 ],
                    "source": [ "obj-39", 1 ]
                }
            },
            {
                "patchline": {
                    "destination": [ "obj-3", 0 ],
                    "source": [ "obj-39", 0 ]
                }
            },
            {
                "patchline": {
                    "destination": [ "obj-10", 0 ],
                    "source": [ "obj-4", 0 ]
                }
            },
            {
                "patchline": {
                    "destination": [ "obj-7", 0 ],
                    "source": [ "obj-5", 0 ]
                }
            }
        ],
        "parameters": {
            "obj-11": [ "slider[3]", "slider[3]", 0 ],
            "obj-25": [ "slider[1]", "slider[1]", 0 ],
            "obj-39": [ "live.gain~", "live.gain~", 0 ],
            "obj-4": [ "slider[2]", "slider[2]", 0 ],
            "obj-5": [ "slider", "slider", 0 ],
            "parameterbanks": {
                "0": {
                    "index": 0,
                    "name": "",
                    "parameters": [ "-", "-", "-", "-", "-", "-", "-", "-" ],
                    "buttons": [ "-", "-", "-", "-", "-", "-", "-", "-" ]
                }
            },
            "inherited_shortname": 1
        },
        "autosave": 0
    }
}