{
    "patcher": {
        "fileversion": 1,
        "appversion": {
            "major": 9,
            "minor": 1,
            "revision": 4,
            "architecture": "x64",
            "modernui": 1
        },
        "classnamespace": "box",
        "rect": [ 277.0, 140.0, 513.0, 759.0 ],
        "boxes": [
            {
                "box": {
                    "id": "obj-5",
                    "maxclass": "newobj",
                    "numinlets": 4,
                    "numoutlets": 2,
                    "outlettype": [ "signal", "signal" ],
                    "patching_rect": [ 135.0, 548.0, 107.0, 22.0 ],
                    "text": "abl.device.reverb~"
                }
            },
            {
                "box": {
                    "id": "obj-4",
                    "maxclass": "number",
                    "numinlets": 1,
                    "numoutlets": 2,
                    "outlettype": [ "", "bang" ],
                    "parameter_enable": 1,
                    "patching_rect": [ 72.0, 356.0, 50.0, 22.0 ],
                    "saved_attribute_attributes": {
                        "valueof": {
                            "parameter_invisible": 1,
                            "parameter_longname": "number",
                            "parameter_modmode": 0,
                            "parameter_shortname": "number",
                            "parameter_type": 3
                        }
                    },
                    "varname": "number"
                }
            },
            {
                "box": {
                    "id": "obj-1",
                    "maxclass": "kslider",
                    "mode": 2,
                    "numinlets": 2,
                    "numoutlets": 2,
                    "offset": 48,
                    "outlettype": [ "int", "int" ],
                    "parameter_enable": 1,
                    "patching_rect": [ 52.0, 55.0, 374.0, 72.0 ],
                    "range": 37,
                    "saved_attribute_attributes": {
                        "valueof": {
                            "parameter_invisible": 1,
                            "parameter_longname": "kslider",
                            "parameter_modmode": 0,
                            "parameter_shortname": "kslider",
                            "parameter_type": 3
                        }
                    },
                    "varname": "kslider"
                }
            },
            {
                "box": {
                    "channels": 1,
                    "id": "obj-7",
                    "lastchannelcount": 0,
                    "maxclass": "live.gain~",
                    "numinlets": 1,
                    "numoutlets": 4,
                    "orientation": 1,
                    "outlettype": [ "signal", "", "float", "list" ],
                    "parameter_enable": 1,
                    "patching_rect": [ 135.0, 501.0, 136.0, 30.0 ],
                    "saved_attribute_attributes": {
                        "valueof": {
                            "parameter_initial": [ -18 ],
                            "parameter_initial_enable": 1,
                            "parameter_longname": "live.gain~[5]",
                            "parameter_mmax": 6.0,
                            "parameter_mmin": -70.0,
                            "parameter_modmode": 0,
                            "parameter_shortname": "live.gain~",
                            "parameter_type": 0,
                            "parameter_unitstyle": 4
                        }
                    },
                    "showname": 0,
                    "varname": "live.gain~[1]"
                }
            },
            {
                "box": {
                    "id": "obj-14",
                    "maxclass": "newobj",
                    "numinlets": 7,
                    "numoutlets": 2,
                    "outlettype": [ "int", "" ],
                    "patching_rect": [ 72.0, 423.0, 82.0, 22.0 ],
                    "text": "midiformat"
                }
            },
            {
                "box": {
                    "id": "obj-30",
                    "local": 1,
                    "maxclass": "ezdac~",
                    "numinlets": 2,
                    "numoutlets": 0,
                    "patching_rect": [ 135.0, 598.0, 45.0, 45.0 ]
                }
            },
            {
                "box": {
                    "id": "obj-12",
                    "maxclass": "newobj",
                    "numinlets": 2,
                    "numoutlets": 1,
                    "outlettype": [ "" ],
                    "patching_rect": [ 72.0, 392.0, 67.0, 22.0 ],
                    "text": "pack 0 0"
                }
            },
            {
                "box": {
                    "color": [ 0.317647, 0.654902, 0.976471, 1.0 ],
                    "id": "obj-10",
                    "maxclass": "newobj",
                    "numinlets": 1,
                    "numoutlets": 1,
                    "outlettype": [ "signal" ],
                    "patching_rect": [ 135.0, 466.0, 98.0, 22.0 ],
                    "text": "poly~ FmVoice 8"
                }
            },
            {
                "box": {
                    "background": 1,
                    "id": "obj-8",
                    "ignoreclick": 1,
                    "maxclass": "mira.frame",
                    "numinlets": 0,
                    "numoutlets": 0,
                    "patching_rect": [ 43.0, 13.0, 396.6593506336212, 282.0 ]
                }
            }
        ],
        "lines": [
            {
                "patchline": {
                    "destination": [ "obj-12", 1 ],
                    "source": [ "obj-1", 1 ]
                }
            },
            {
                "patchline": {
                    "destination": [ "obj-4", 0 ],
                    "source": [ "obj-1", 0 ]
                }
            },
            {
                "patchline": {
                    "destination": [ "obj-7", 0 ],
                    "source": [ "obj-10", 0 ]
                }
            },
            {
                "patchline": {
                    "destination": [ "obj-14", 0 ],
                    "source": [ "obj-12", 0 ]
                }
            },
            {
                "patchline": {
                    "destination": [ "obj-10", 0 ],
                    "source": [ "obj-14", 1 ]
                }
            },
            {
                "patchline": {
                    "destination": [ "obj-12", 0 ],
                    "source": [ "obj-4", 0 ]
                }
            },
            {
                "patchline": {
                    "destination": [ "obj-30", 1 ],
                    "source": [ "obj-5", 1 ]
                }
            },
            {
                "patchline": {
                    "destination": [ "obj-30", 0 ],
                    "source": [ "obj-5", 0 ]
                }
            },
            {
                "patchline": {
                    "destination": [ "obj-5", 0 ],
                    "source": [ "obj-7", 0 ]
                }
            }
        ],
        "parameters": {
            "obj-1": [ "kslider", "kslider", 0 ],
            "obj-4": [ "number", "number", 0 ],
            "obj-7": [ "live.gain~[5]", "live.gain~", 0 ],
            "parameterbanks": {
                "0": {
                    "index": 0,
                    "name": "",
                    "parameters": [ "-", "-", "-", "-", "-", "-", "-", "-" ],
                    "buttons": [ "-", "-", "-", "-", "-", "-", "-", "-" ]
                }
            },
            "inherited_shortname": 1
        },
        "autosave": 0
    }
}