{
    "patcher": {
        "fileversion": 1,
        "appversion": {
            "major": 9,
            "minor": 1,
            "revision": 4,
            "architecture": "x64",
            "modernui": 1
        },
        "classnamespace": "box",
        "rect": [ 54.0, 111.0, 1000.0, 759.0 ],
        "boxes": [
            {
                "box": {
                    "id": "obj-95",
                    "maxclass": "message",
                    "numinlets": 2,
                    "numoutlets": 1,
                    "outlettype": [ "" ],
                    "patching_rect": [ 900.0, 573.0, 32.0, 22.0 ],
                    "text": "$1 2"
                }
            },
            {
                "box": {
                    "id": "obj-93",
                    "maxclass": "newobj",
                    "numinlets": 2,
                    "numoutlets": 2,
                    "outlettype": [ "signal", "bang" ],
                    "patching_rect": [ 900.0, 601.0, 34.0, 22.0 ],
                    "text": "line~"
                }
            },
            {
                "box": {
                    "id": "obj-92",
                    "maxclass": "newobj",
                    "numinlets": 2,
                    "numoutlets": 1,
                    "outlettype": [ "float" ],
                    "patching_rect": [ 900.0, 545.0, 39.0, 22.0 ],
                    "text": "/ 100."
                }
            },
            {
                "box": {
                    "id": "obj-91",
                    "maxclass": "newobj",
                    "numinlets": 2,
                    "numoutlets": 1,
                    "outlettype": [ "" ],
                    "patching_rect": [ 900.0, 516.0, 73.0, 22.0 ],
                    "text": "random 100"
                }
            },
            {
                "box": {
                    "id": "obj-90",
                    "maxclass": "newobj",
                    "numinlets": 2,
                    "numoutlets": 1,
                    "outlettype": [ "signal" ],
                    "patching_rect": [ 408.0, 442.0, 34.0, 22.0 ],
                    "text": "*~ 1."
                }
            },
            {
                "box": {
                    "id": "obj-89",
                    "maxclass": "message",
                    "numinlets": 2,
                    "numoutlets": 1,
                    "outlettype": [ "" ],
                    "patching_rect": [ 916.5, 372.0, 29.5, 22.0 ],
                    "text": "30"
                }
            },
            {
                "box": {
                    "id": "obj-86",
                    "maxclass": "message",
                    "numinlets": 2,
                    "numoutlets": 1,
                    "outlettype": [ "" ],
                    "patching_rect": [ 879.0, 372.0, 29.5, 22.0 ],
                    "text": "0.1"
                }
            },
            {
                "box": {
                    "id": "obj-83",
                    "maxclass": "newobj",
                    "numinlets": 3,
                    "numoutlets": 3,
                    "outlettype": [ "bang", "bang", "" ],
                    "patching_rect": [ 896.0, 325.0, 60.0, 22.0 ],
                    "text": "select 0 1"
                }
            },
            {
                "box": {
                    "id": "obj-82",
                    "maxclass": "newobj",
                    "numinlets": 2,
                    "numoutlets": 1,
                    "outlettype": [ "" ],
                    "patching_rect": [ 897.0, 263.0, 59.0, 22.0 ],
                    "text": "random 2"
                }
            },
            {
                "box": {
                    "id": "obj-81",
                    "maxclass": "newobj",
                    "numinlets": 2,
                    "numoutlets": 1,
                    "outlettype": [ "float" ],
                    "patching_rect": [ 837.0, 223.0, 39.0, 22.0 ],
                    "text": "/ 100."
                }
            },
            {
                "box": {
                    "id": "obj-80",
                    "maxclass": "newobj",
                    "numinlets": 2,
                    "numoutlets": 1,
                    "outlettype": [ "" ],
                    "patching_rect": [ 810.0, 134.0, 73.0, 22.0 ],
                    "text": "random 100"
                }
            },
            {
                "box": {
                    "id": "obj-79",
                    "maxclass": "newobj",
                    "numinlets": 2,
                    "numoutlets": 1,
                    "outlettype": [ "int" ],
                    "patching_rect": [ 703.0, 60.0, 29.5, 22.0 ],
                    "text": "/ 10"
                }
            },
            {
                "box": {
                    "id": "obj-78",
                    "maxclass": "newobj",
                    "numinlets": 2,
                    "numoutlets": 1,
                    "outlettype": [ "bang" ],
                    "patching_rect": [ 703.0, 89.0, 119.0, 22.0 ],
                    "text": "metro 200 @active 1"
                }
            },
            {
                "box": {
                    "attr": "mix",
                    "id": "obj-76",
                    "maxclass": "attrui",
                    "numinlets": 1,
                    "numoutlets": 1,
                    "outlettype": [ "" ],
                    "parameter_enable": 0,
                    "patching_rect": [ 646.0, 676.0, 150.0, 22.0 ]
                }
            },
            {
                "box": {
                    "id": "obj-75",
                    "maxclass": "newobj",
                    "numinlets": 2,
                    "numoutlets": 1,
                    "outlettype": [ "float" ],
                    "patching_rect": [ 626.0, 475.0, 39.0, 22.0 ],
                    "text": "/ 100."
                }
            },
            {
                "box": {
                    "id": "obj-74",
                    "maxclass": "newobj",
                    "numinlets": 2,
                    "numoutlets": 1,
                    "outlettype": [ "" ],
                    "patching_rect": [ 626.0, 442.0, 73.0, 22.0 ],
                    "text": "random 100"
                }
            },
            {
                "box": {
                    "id": "obj-73",
                    "maxclass": "button",
                    "numinlets": 1,
                    "numoutlets": 1,
                    "outlettype": [ "bang" ],
                    "parameter_enable": 0,
                    "patching_rect": [ 782.0, 371.0, 24.0, 24.0 ]
                }
            },
            {
                "box": {
                    "id": "obj-67",
                    "maxclass": "newobj",
                    "numinlets": 2,
                    "numoutlets": 1,
                    "outlettype": [ "" ],
                    "patching_rect": [ 678.0, 533.0, 47.0, 22.0 ],
                    "text": "pack f f"
                }
            },
            {
                "box": {
                    "id": "obj-66",
                    "maxclass": "newobj",
                    "numinlets": 2,
                    "numoutlets": 1,
                    "outlettype": [ "float" ],
                    "patching_rect": [ 773.0, 499.0, 39.0, 22.0 ],
                    "text": "/ 100."
                }
            },
            {
                "box": {
                    "id": "obj-65",
                    "maxclass": "newobj",
                    "numinlets": 2,
                    "numoutlets": 1,
                    "outlettype": [ "" ],
                    "patching_rect": [ 773.0, 469.0, 66.0, 22.0 ],
                    "text": "random 10"
                }
            },
            {
                "box": {
                    "id": "obj-64",
                    "maxclass": "newobj",
                    "numinlets": 1,
                    "numoutlets": 1,
                    "outlettype": [ "bang" ],
                    "patching_rect": [ 773.0, 434.0, 58.0, 22.0 ],
                    "text": "loadbang"
                }
            },
            {
                "box": {
                    "format": 6,
                    "id": "obj-63",
                    "maxclass": "flonum",
                    "numinlets": 1,
                    "numoutlets": 2,
                    "outlettype": [ "", "bang" ],
                    "parameter_enable": 0,
                    "patching_rect": [ 773.0, 529.0, 50.0, 22.0 ]
                }
            },
            {
                "box": {
                    "attr": "delay",
                    "id": "obj-59",
                    "maxclass": "attrui",
                    "numinlets": 1,
                    "numoutlets": 1,
                    "outlettype": [ "" ],
                    "parameter_enable": 0,
                    "patching_rect": [ 552.0, 583.0, 252.0, 22.0 ]
                }
            },
            {
                "box": {
                    "id": "obj-58",
                    "maxclass": "newobj",
                    "numinlets": 3,
                    "numoutlets": 2,
                    "outlettype": [ "signal", "signal" ],
                    "patching_rect": [ 400.0, 588.0, 102.0, 22.0 ],
                    "text": "abl.device.delay~"
                }
            },
            {
                "box": {
                    "id": "obj-7",
                    "maxclass": "newobj",
                    "numinlets": 2,
                    "numoutlets": 1,
                    "outlettype": [ "float" ],
                    "patching_rect": [ 313.0, 389.0, 29.5, 22.0 ],
                    "text": "!/ 1."
                }
            },
            {
                "box": {
                    "id": "obj-56",
                    "maxclass": "newobj",
                    "numinlets": 2,
                    "numoutlets": 1,
                    "outlettype": [ "signal" ],
                    "patching_rect": [ 280.5, 505.0, 29.5, 22.0 ],
                    "text": "*~"
                }
            },
            {
                "box": {
                    "id": "obj-55",
                    "maxclass": "newobj",
                    "numinlets": 2,
                    "numoutlets": 1,
                    "outlettype": [ "float" ],
                    "patching_rect": [ 216.0, 367.0, 31.0, 22.0 ],
                    "text": "* -1."
                }
            },
            {
                "box": {
                    "id": "obj-54",
                    "maxclass": "newobj",
                    "numinlets": 2,
                    "numoutlets": 1,
                    "outlettype": [ "float" ],
                    "patching_rect": [ 243.0, 319.0, 39.0, 22.0 ],
                    "text": "/ 100."
                }
            },
            {
                "box": {
                    "id": "obj-53",
                    "maxclass": "newobj",
                    "numinlets": 2,
                    "numoutlets": 1,
                    "outlettype": [ "" ],
                    "patching_rect": [ 243.0, 292.0, 73.0, 22.0 ],
                    "text": "random 100"
                }
            },
            {
                "box": {
                    "id": "obj-52",
                    "maxclass": "newobj",
                    "numinlets": 3,
                    "numoutlets": 1,
                    "outlettype": [ "signal" ],
                    "patching_rect": [ 268.0, 447.0, 42.0, 22.0 ],
                    "text": "pong~"
                }
            },
            {
                "box": {
                    "id": "obj-50",
                    "maxclass": "newobj",
                    "numinlets": 1,
                    "numoutlets": 1,
                    "outlettype": [ "" ],
                    "patching_rect": [ 703.0, 230.0, 32.0, 22.0 ],
                    "text": "mtof"
                }
            },
            {
                "box": {
                    "id": "obj-51",
                    "maxclass": "newobj",
                    "numinlets": 3,
                    "numoutlets": 1,
                    "outlettype": [ "" ],
                    "patching_rect": [ 703.0, 203.0, 79.0, 22.0 ],
                    "text": "drunk 127 12"
                }
            },
            {
                "box": {
                    "id": "obj-49",
                    "maxclass": "message",
                    "numinlets": 2,
                    "numoutlets": 1,
                    "outlettype": [ "" ],
                    "patching_rect": [ 531.0, 477.0, 32.0, 22.0 ],
                    "text": "$1 2"
                }
            },
            {
                "box": {
                    "id": "obj-45",
                    "maxclass": "newobj",
                    "numinlets": 2,
                    "numoutlets": 2,
                    "outlettype": [ "signal", "bang" ],
                    "patching_rect": [ 531.0, 505.0, 34.0, 22.0 ],
                    "text": "line~"
                }
            },
            {
                "box": {
                    "id": "obj-44",
                    "maxclass": "newobj",
                    "numinlets": 2,
                    "numoutlets": 1,
                    "outlettype": [ "float" ],
                    "patching_rect": [ 531.0, 449.0, 39.0, 22.0 ],
                    "text": "/ 100."
                }
            },
            {
                "box": {
                    "id": "obj-43",
                    "maxclass": "newobj",
                    "numinlets": 2,
                    "numoutlets": 1,
                    "outlettype": [ "" ],
                    "patching_rect": [ 531.0, 424.0, 73.0, 22.0 ],
                    "text": "random 100"
                }
            },
            {
                "box": {
                    "id": "obj-48",
                    "maxclass": "newobj",
                    "numinlets": 1,
                    "numoutlets": 2,
                    "outlettype": [ "signal", "signal" ],
                    "patching_rect": [ 403.5, 533.0, 74.0, 22.0 ],
                    "text": "mc.unpack~"
                }
            },
            {
                "box": {
                    "id": "obj-31",
                    "maxclass": "newobj",
                    "numinlets": 2,
                    "numoutlets": 1,
                    "outlettype": [ "multichannelsignal" ],
                    "patching_rect": [ 403.5, 499.0, 68.0, 22.0 ],
                    "text": "mc.stereo~"
                }
            },
            {
                "box": {
                    "id": "obj-42",
                    "maxclass": "newobj",
                    "numinlets": 1,
                    "numoutlets": 1,
                    "outlettype": [ "" ],
                    "patching_rect": [ 645.0, 292.0, 127.0, 22.0 ],
                    "text": "expr random (10\\, 100)"
                }
            },
            {
                "box": {
                    "id": "obj-41",
                    "maxclass": "newobj",
                    "numinlets": 1,
                    "numoutlets": 1,
                    "outlettype": [ "" ],
                    "patching_rect": [ 620.0, 230.0, 32.0, 22.0 ],
                    "text": "mtof"
                }
            },
            {
                "box": {
                    "id": "obj-40",
                    "maxclass": "newobj",
                    "numinlets": 3,
                    "numoutlets": 1,
                    "outlettype": [ "" ],
                    "patching_rect": [ 620.0, 203.0, 79.0, 22.0 ],
                    "text": "drunk 127 12"
                }
            },
            {
                "box": {
                    "id": "obj-39",
                    "maxclass": "newobj",
                    "numinlets": 2,
                    "numoutlets": 1,
                    "outlettype": [ "signal" ],
                    "patching_rect": [ 528.0, 314.0, 54.0, 22.0 ],
                    "text": "*~ 1000."
                }
            },
            {
                "box": {
                    "id": "obj-37",
                    "maxclass": "newobj",
                    "numinlets": 2,
                    "numoutlets": 1,
                    "outlettype": [ "signal" ],
                    "patching_rect": [ 528.0, 285.0, 73.0, 22.0 ],
                    "text": "cycle~ 1000"
                }
            },
            {
                "box": {
                    "id": "obj-36",
                    "maxclass": "newobj",
                    "numinlets": 2,
                    "numoutlets": 1,
                    "outlettype": [ "signal" ],
                    "patching_rect": [ 408.0, 337.0, 29.5, 22.0 ],
                    "text": "+~"
                }
            },
            {
                "box": {
                    "id": "obj-35",
                    "maxclass": "newobj",
                    "numinlets": 2,
                    "numoutlets": 1,
                    "outlettype": [ "signal" ],
                    "patching_rect": [ 408.0, 375.0, 43.0, 22.0 ],
                    "text": "cycle~"
                }
            },
            {
                "box": {
                    "id": "obj-26",
                    "maxclass": "newobj",
                    "numinlets": 1,
                    "numoutlets": 1,
                    "outlettype": [ "bang" ],
                    "patching_rect": [ 545.0, 70.0, 58.0, 22.0 ],
                    "text": "loadbang"
                }
            },
            {
                "box": {
                    "id": "obj-25",
                    "maxclass": "newobj",
                    "numinlets": 1,
                    "numoutlets": 0,
                    "patching_rect": [ 443.5, 649.0, 42.0, 22.0 ],
                    "saved_object_attributes": {
                        "attr_comment": "",
                        "c": ""
                    },
                    "text": "out~ 2"
                }
            },
            {
                "box": {
                    "id": "obj-24",
                    "maxclass": "newobj",
                    "numinlets": 1,
                    "numoutlets": 0,
                    "patching_rect": [ 390.0, 649.0, 42.0, 22.0 ],
                    "saved_object_attributes": {
                        "attr_comment": "",
                        "c": ""
                    },
                    "text": "out~ 1"
                }
            },
            {
                "box": {
                    "id": "obj-22",
                    "maxclass": "newobj",
                    "numinlets": 1,
                    "numoutlets": 1,
                    "outlettype": [ "" ],
                    "patching_rect": [ 538.0, 32.0, 141.0, 22.0 ],
                    "text": "expr random (250\\, 8000)"
                }
            },
            {
                "box": {
                    "id": "obj-21",
                    "maxclass": "newobj",
                    "numinlets": 2,
                    "numoutlets": 1,
                    "outlettype": [ "bang" ],
                    "patching_rect": [ 408.0, 32.0, 126.0, 22.0 ],
                    "text": "metro 2000 @active 1"
                }
            },
            {
                "box": {
                    "id": "obj-20",
                    "maxclass": "newobj",
                    "numinlets": 2,
                    "numoutlets": 1,
                    "outlettype": [ "int" ],
                    "patching_rect": [ 545.0, 141.0, 29.5, 22.0 ],
                    "text": "+ 2"
                }
            },
            {
                "box": {
                    "id": "obj-19",
                    "maxclass": "newobj",
                    "numinlets": 2,
                    "numoutlets": 1,
                    "outlettype": [ "int" ],
                    "patching_rect": [ 545.0, 173.0, 30.0, 22.0 ],
                    "text": "* 12"
                }
            },
            {
                "box": {
                    "id": "obj-18",
                    "maxclass": "newobj",
                    "numinlets": 2,
                    "numoutlets": 1,
                    "outlettype": [ "" ],
                    "patching_rect": [ 545.0, 113.0, 59.0, 22.0 ],
                    "text": "random 4"
                }
            },
            {
                "box": {
                    "id": "obj-17",
                    "maxclass": "newobj",
                    "numinlets": 2,
                    "numoutlets": 2,
                    "outlettype": [ "", "" ],
                    "patching_rect": [ 408.0, 156.0, 113.0, 22.0 ],
                    "text": "zl.lookup 2 5 7 9 12"
                }
            },
            {
                "box": {
                    "id": "obj-16",
                    "maxclass": "button",
                    "numinlets": 1,
                    "numoutlets": 1,
                    "outlettype": [ "bang" ],
                    "parameter_enable": 0,
                    "patching_rect": [ 408.0, 70.0, 24.0, 24.0 ]
                }
            },
            {
                "box": {
                    "id": "obj-14",
                    "maxclass": "newobj",
                    "numinlets": 2,
                    "numoutlets": 1,
                    "outlettype": [ "int" ],
                    "patching_rect": [ 408.0, 199.0, 32.0, 22.0 ],
                    "text": "+ 48"
                }
            },
            {
                "box": {
                    "id": "obj-13",
                    "maxclass": "newobj",
                    "numinlets": 2,
                    "numoutlets": 1,
                    "outlettype": [ "" ],
                    "patching_rect": [ 408.0, 118.0, 59.0, 22.0 ],
                    "text": "random 5"
                }
            },
            {
                "box": {
                    "id": "obj-12",
                    "maxclass": "newobj",
                    "numinlets": 2,
                    "numoutlets": 1,
                    "outlettype": [ "signal" ],
                    "patching_rect": [ 408.0, 414.0, 29.5, 22.0 ],
                    "text": "*~"
                }
            },
            {
                "box": {
                    "id": "obj-11",
                    "maxclass": "message",
                    "numinlets": 2,
                    "numoutlets": 1,
                    "outlettype": [ "" ],
                    "patching_rect": [ 612.0, 292.0, 29.5, 22.0 ],
                    "text": "1"
                }
            },
            {
                "box": {
                    "id": "obj-9",
                    "maxclass": "newobj",
                    "numinlets": 5,
                    "numoutlets": 4,
                    "outlettype": [ "signal", "signal", "", "" ],
                    "patching_rect": [ 612.0, 347.0, 99.0, 22.0 ],
                    "text": "adsr~ 1. 30. 0. 2."
                }
            },
            {
                "box": {
                    "id": "obj-8",
                    "maxclass": "slider",
                    "numinlets": 1,
                    "numoutlets": 1,
                    "outlettype": [ "" ],
                    "parameter_enable": 0,
                    "patching_rect": [ 408.0, 241.0, 193.0, 29.0 ]
                }
            },
            {
                "box": {
                    "id": "obj-6",
                    "maxclass": "newobj",
                    "numinlets": 1,
                    "numoutlets": 1,
                    "outlettype": [ "" ],
                    "patching_rect": [ 408.0, 292.0, 32.0, 22.0 ],
                    "text": "mtof"
                }
            },
            {
                "box": {
                    "id": "obj-3",
                    "maxclass": "newobj",
                    "numinlets": 2,
                    "numoutlets": 1,
                    "outlettype": [ "signal" ],
                    "patching_rect": [ 408.0, 469.0, 32.0, 22.0 ],
                    "text": "/~ 2."
                }
            }
        ],
        "lines": [
            {
                "patchline": {
                    "destination": [ "obj-9", 0 ],
                    "source": [ "obj-11", 0 ]
                }
            },
            {
                "patchline": {
                    "destination": [ "obj-90", 0 ],
                    "source": [ "obj-12", 0 ]
                }
            },
            {
                "patchline": {
                    "destination": [ "obj-17", 0 ],
                    "source": [ "obj-13", 0 ]
                }
            },
            {
                "patchline": {
                    "destination": [ "obj-8", 0 ],
                    "source": [ "obj-14", 0 ]
                }
            },
            {
                "patchline": {
                    "destination": [ "obj-11", 0 ],
                    "order": 6,
                    "source": [ "obj-16", 0 ]
                }
            },
            {
                "patchline": {
                    "destination": [ "obj-13", 0 ],
                    "order": 9,
                    "source": [ "obj-16", 0 ]
                }
            },
            {
                "patchline": {
                    "destination": [ "obj-18", 0 ],
                    "order": 7,
                    "source": [ "obj-16", 0 ]
                }
            },
            {
                "patchline": {
                    "destination": [ "obj-40", 0 ],
                    "order": 5,
                    "source": [ "obj-16", 0 ]
                }
            },
            {
                "patchline": {
                    "destination": [ "obj-42", 0 ],
                    "order": 3,
                    "source": [ "obj-16", 0 ]
                }
            },
            {
                "patchline": {
                    "destination": [ "obj-43", 0 ],
                    "order": 8,
                    "source": [ "obj-16", 0 ]
                }
            },
            {
                "patchline": {
                    "destination": [ "obj-51", 0 ],
                    "order": 2,
                    "source": [ "obj-16", 0 ]
                }
            },
            {
                "patchline": {
                    "destination": [ "obj-53", 0 ],
                    "order": 10,
                    "source": [ "obj-16", 0 ]
                }
            },
            {
                "patchline": {
                    "destination": [ "obj-74", 0 ],
                    "order": 4,
                    "source": [ "obj-16", 0 ]
                }
            },
            {
                "patchline": {
                    "destination": [ "obj-82", 0 ],
                    "order": 1,
                    "source": [ "obj-16", 0 ]
                }
            },
            {
                "patchline": {
                    "destination": [ "obj-91", 0 ],
                    "order": 0,
                    "source": [ "obj-16", 0 ]
                }
            },
            {
                "patchline": {
                    "destination": [ "obj-14", 0 ],
                    "source": [ "obj-17", 0 ]
                }
            },
            {
                "patchline": {
                    "destination": [ "obj-20", 0 ],
                    "source": [ "obj-18", 0 ]
                }
            },
            {
                "patchline": {
                    "destination": [ "obj-14", 1 ],
                    "source": [ "obj-19", 0 ]
                }
            },
            {
                "patchline": {
                    "destination": [ "obj-19", 0 ],
                    "source": [ "obj-20", 0 ]
                }
            },
            {
                "patchline": {
                    "destination": [ "obj-16", 0 ],
                    "order": 1,
                    "source": [ "obj-21", 0 ]
                }
            },
            {
                "patchline": {
                    "destination": [ "obj-22", 0 ],
                    "order": 0,
                    "source": [ "obj-21", 0 ]
                }
            },
            {
                "patchline": {
                    "destination": [ "obj-21", 1 ],
                    "order": 1,
                    "source": [ "obj-22", 0 ]
                }
            },
            {
                "patchline": {
                    "destination": [ "obj-79", 0 ],
                    "order": 0,
                    "source": [ "obj-22", 0 ]
                }
            },
            {
                "patchline": {
                    "destination": [ "obj-13", 0 ],
                    "order": 1,
                    "source": [ "obj-26", 0 ]
                }
            },
            {
                "patchline": {
                    "destination": [ "obj-18", 0 ],
                    "order": 0,
                    "source": [ "obj-26", 0 ]
                }
            },
            {
                "patchline": {
                    "destination": [ "obj-31", 0 ],
                    "source": [ "obj-3", 0 ]
                }
            },
            {
                "patchline": {
                    "destination": [ "obj-48", 0 ],
                    "source": [ "obj-31", 0 ]
                }
            },
            {
                "patchline": {
                    "destination": [ "obj-52", 0 ],
                    "source": [ "obj-35", 0 ]
                }
            },
            {
                "patchline": {
                    "destination": [ "obj-35", 0 ],
                    "source": [ "obj-36", 0 ]
                }
            },
            {
                "patchline": {
                    "destination": [ "obj-39", 0 ],
                    "source": [ "obj-37", 0 ]
                }
            },
            {
                "patchline": {
                    "destination": [ "obj-36", 1 ],
                    "source": [ "obj-39", 0 ]
                }
            },
            {
                "patchline": {
                    "destination": [ "obj-41", 0 ],
                    "source": [ "obj-40", 0 ]
                }
            },
            {
                "patchline": {
                    "destination": [ "obj-39", 1 ],
                    "source": [ "obj-41", 0 ]
                }
            },
            {
                "patchline": {
                    "destination": [ "obj-9", 2 ],
                    "source": [ "obj-42", 0 ]
                }
            },
            {
                "patchline": {
                    "destination": [ "obj-44", 0 ],
                    "source": [ "obj-43", 0 ]
                }
            },
            {
                "patchline": {
                    "destination": [ "obj-49", 0 ],
                    "source": [ "obj-44", 0 ]
                }
            },
            {
                "patchline": {
                    "destination": [ "obj-31", 1 ],
                    "source": [ "obj-45", 0 ]
                }
            },
            {
                "patchline": {
                    "destination": [ "obj-58", 1 ],
                    "source": [ "obj-48", 1 ]
                }
            },
            {
                "patchline": {
                    "destination": [ "obj-58", 0 ],
                    "source": [ "obj-48", 0 ]
                }
            },
            {
                "patchline": {
                    "destination": [ "obj-45", 0 ],
                    "source": [ "obj-49", 0 ]
                }
            },
            {
                "patchline": {
                    "destination": [ "obj-37", 0 ],
                    "source": [ "obj-50", 0 ]
                }
            },
            {
                "patchline": {
                    "destination": [ "obj-50", 0 ],
                    "source": [ "obj-51", 0 ]
                }
            },
            {
                "patchline": {
                    "destination": [ "obj-56", 0 ],
                    "source": [ "obj-52", 0 ]
                }
            },
            {
                "patchline": {
                    "destination": [ "obj-54", 0 ],
                    "source": [ "obj-53", 0 ]
                }
            },
            {
                "patchline": {
                    "destination": [ "obj-52", 2 ],
                    "order": 1,
                    "source": [ "obj-54", 0 ]
                }
            },
            {
                "patchline": {
                    "destination": [ "obj-55", 0 ],
                    "order": 2,
                    "source": [ "obj-54", 0 ]
                }
            },
            {
                "patchline": {
                    "destination": [ "obj-7", 0 ],
                    "order": 0,
                    "source": [ "obj-54", 0 ]
                }
            },
            {
                "patchline": {
                    "destination": [ "obj-52", 1 ],
                    "source": [ "obj-55", 0 ]
                }
            },
            {
                "patchline": {
                    "destination": [ "obj-12", 0 ],
                    "source": [ "obj-56", 0 ]
                }
            },
            {
                "patchline": {
                    "destination": [ "obj-24", 0 ],
                    "source": [ "obj-58", 0 ]
                }
            },
            {
                "patchline": {
                    "destination": [ "obj-25", 0 ],
                    "source": [ "obj-58", 1 ]
                }
            },
            {
                "patchline": {
                    "destination": [ "obj-58", 0 ],
                    "source": [ "obj-59", 0 ]
                }
            },
            {
                "patchline": {
                    "destination": [ "obj-36", 0 ],
                    "source": [ "obj-6", 0 ]
                }
            },
            {
                "patchline": {
                    "destination": [ "obj-67", 1 ],
                    "order": 0,
                    "source": [ "obj-63", 0 ]
                }
            },
            {
                "patchline": {
                    "destination": [ "obj-67", 0 ],
                    "order": 1,
                    "source": [ "obj-63", 0 ]
                }
            },
            {
                "patchline": {
                    "destination": [ "obj-65", 0 ],
                    "source": [ "obj-64", 0 ]
                }
            },
            {
                "patchline": {
                    "destination": [ "obj-66", 0 ],
                    "source": [ "obj-65", 0 ]
                }
            },
            {
                "patchline": {
                    "destination": [ "obj-63", 0 ],
                    "source": [ "obj-66", 0 ]
                }
            },
            {
                "patchline": {
                    "destination": [ "obj-59", 0 ],
                    "source": [ "obj-67", 0 ]
                }
            },
            {
                "patchline": {
                    "destination": [ "obj-56", 1 ],
                    "source": [ "obj-7", 0 ]
                }
            },
            {
                "patchline": {
                    "destination": [ "obj-64", 0 ],
                    "source": [ "obj-73", 0 ]
                }
            },
            {
                "patchline": {
                    "destination": [ "obj-75", 0 ],
                    "source": [ "obj-74", 0 ]
                }
            },
            {
                "patchline": {
                    "destination": [ "obj-58", 2 ],
                    "source": [ "obj-75", 0 ]
                }
            },
            {
                "patchline": {
                    "destination": [ "obj-58", 0 ],
                    "source": [ "obj-76", 0 ]
                }
            },
            {
                "patchline": {
                    "destination": [ "obj-80", 0 ],
                    "source": [ "obj-78", 0 ]
                }
            },
            {
                "patchline": {
                    "destination": [ "obj-78", 0 ],
                    "source": [ "obj-79", 0 ]
                }
            },
            {
                "patchline": {
                    "destination": [ "obj-6", 0 ],
                    "source": [ "obj-8", 0 ]
                }
            },
            {
                "patchline": {
                    "destination": [ "obj-81", 0 ],
                    "source": [ "obj-80", 0 ]
                }
            },
            {
                "patchline": {
                    "destination": [ "obj-76", 0 ],
                    "source": [ "obj-81", 0 ]
                }
            },
            {
                "patchline": {
                    "destination": [ "obj-83", 0 ],
                    "source": [ "obj-82", 0 ]
                }
            },
            {
                "patchline": {
                    "destination": [ "obj-86", 0 ],
                    "source": [ "obj-83", 0 ]
                }
            },
            {
                "patchline": {
                    "destination": [ "obj-89", 0 ],
                    "source": [ "obj-83", 1 ]
                }
            },
            {
                "patchline": {
                    "destination": [ "obj-9", 1 ],
                    "source": [ "obj-86", 0 ]
                }
            },
            {
                "patchline": {
                    "destination": [ "obj-9", 1 ],
                    "source": [ "obj-89", 0 ]
                }
            },
            {
                "patchline": {
                    "destination": [ "obj-12", 1 ],
                    "source": [ "obj-9", 0 ]
                }
            },
            {
                "patchline": {
                    "destination": [ "obj-3", 0 ],
                    "source": [ "obj-90", 0 ]
                }
            },
            {
                "patchline": {
                    "destination": [ "obj-92", 0 ],
                    "source": [ "obj-91", 0 ]
                }
            },
            {
                "patchline": {
                    "destination": [ "obj-95", 0 ],
                    "source": [ "obj-92", 0 ]
                }
            },
            {
                "patchline": {
                    "destination": [ "obj-90", 1 ],
                    "source": [ "obj-93", 0 ]
                }
            },
            {
                "patchline": {
                    "destination": [ "obj-93", 0 ],
                    "source": [ "obj-95", 0 ]
                }
            }
        ],
        "autosave": 0
    }
}